<?xml version="1.0" standalone="no"?>
<!DOCTYPE svg PUBLIC "-//W3C//DTD SVG 20010904//EN"
 "http://www.w3.org/TR/2001/REC-SVG-20010904/DTD/svg10.dtd">
<svg version="1.0" xmlns="http://www.w3.org/2000/svg"
 width="200.000000pt" height="200.000000pt" viewBox="0 0 200.000000 200.000000"
 preserveAspectRatio="xMidYMid meet">

<g transform="translate(0.000000,200.000000) scale(0.100000,-0.100000)"
fill="#ffffff" stroke="none">
<path d="M823 1621 c-107 -39 -179 -108 -231 -218 -24 -51 -27 -70 -27 -158 0
-87 4 -107 27 -158 77 -164 258 -260 434 -230 64 11 95 26 81 39 -3 3 -29 1
-58 -6 -79 -19 -183 -9 -253 26 -58 28 -58 28 -53 66 3 22 14 46 26 56 19 15
21 23 14 72 -8 52 -10 56 -46 67 -21 7 -53 24 -71 38 -21 16 -39 22 -54 18
-16 -4 -22 -1 -22 11 0 12 9 16 35 16 38 0 57 22 37 42 -8 8 -6 17 9 32 33 34
89 124 89 144 0 9 -7 27 -15 39 -14 21 -14 23 7 37 61 39 198 80 198 58 0 -17
-35 -40 -79 -53 -30 -9 -49 -22 -62 -43 -24 -40 -24 -61 1 -96 l20 -28 -25
-30 c-51 -61 -54 -116 -8 -152 15 -12 41 -20 62 -20 31 0 38 -4 51 -32 7 -18
13 -47 11 -63 -3 -45 34 -125 58 -125 35 0 52 12 73 54 11 22 27 49 35 58 9
10 13 27 10 40 -5 17 2 33 23 58 35 40 35 62 1 70 -16 3 -31 20 -45 50 -24 52
-77 86 -107 69 -14 -7 -21 -5 -29 11 -8 14 -21 20 -46 20 -39 0 -38 15 2 30
13 5 24 14 24 20 0 16 -46 12 -60 -5 -18 -21 -29 -19 -36 9 -9 37 11 62 67 82
28 10 62 32 76 48 21 25 29 28 64 23 100 -13 217 -103 264 -204 21 -43 23 -56
13 -72 -11 -18 -13 -17 -33 13 -17 25 -28 31 -55 31 -26 0 -34 -4 -32 -15 4
-15 -24 -40 -45 -40 -7 0 -23 21 -36 47 -22 46 -68 85 -84 70 -4 -4 5 -18 19
-30 15 -12 38 -46 53 -75 22 -46 29 -52 48 -46 30 10 66 34 76 52 12 21 29 7
48 -39 17 -43 29 -48 50 -21 13 15 14 9 10 -54 -5 -89 -39 -165 -102 -233 -30
-32 -42 -52 -35 -56 20 -12 89 66 128 144 35 70 37 81 36 165 -1 121 -26 186
-105 270 -83 89 -152 120 -279 123 -74 3 -107 -1 -147 -16z m-95 -134 c4 -19
-61 -124 -90 -145 -12 -9 -17 -20 -13 -33 5 -13 2 -19 -10 -19 -26 0 -27 23
-5 81 38 104 107 172 118 116z m194 -132 c31 -26 53 -32 63 -15 11 18 44 -8
66 -53 12 -23 31 -50 43 -60 15 -13 17 -20 8 -24 -18 -7 -43 -59 -36 -76 3 -9
-6 -33 -20 -56 -14 -22 -26 -45 -26 -50 0 -6 -8 -15 -18 -20 -16 -8 -22 -4
-35 25 -10 19 -17 54 -17 77 -1 23 -9 58 -18 77 -15 31 -22 35 -62 38 -51 4
-80 25 -80 57 0 25 48 92 70 98 28 8 32 7 62 -18z m-260 -172 c9 -8 34 -21 54
-28 35 -12 38 -16 41 -54 2 -31 -2 -43 -16 -50 -10 -6 -21 -25 -25 -42 l-6
-33 -30 29 c-33 32 -75 111 -85 162 -5 25 -3 32 12 35 20 5 31 1 55 -19z"/>
<path d="M962 1449 c2 -6 8 -10 13 -10 5 0 11 4 13 10 2 6 -4 11 -13 11 -9 0
-15 -5 -13 -11z"/>
<path d="M1147 1120 c-21 -22 -28 -40 -30 -77 -2 -42 1 -48 19 -51 21 -3 33
14 53 77 10 32 6 82 -8 81 -3 -1 -18 -14 -34 -30z m4 -77 c-9 -16 -10 -15 -11
8 0 14 3 29 8 33 12 12 14 -22 3 -41z"/>
<path d="M1140 915 c0 -9 5 -15 11 -13 6 2 11 8 11 13 0 5 -5 11 -11 13 -6 2
-11 -4 -11 -13z"/>
<path d="M151 713 c-16 -14 -24 -41 -36 -126 -18 -121 -14 -137 35 -137 36 0
49 17 56 74 6 41 5 46 -13 46 -16 0 -22 -8 -26 -41 -3 -22 -8 -43 -11 -46 -14
-14 -16 9 -6 73 18 123 21 134 31 134 7 0 8 -15 4 -40 -6 -35 -4 -40 13 -40
14 0 21 9 26 31 9 46 8 56 -10 73 -20 21 -37 20 -63 -1z"/>
<path d="M1001 713 c-17 -14 -25 -39 -37 -118 -19 -127 -15 -145 31 -145 39 0
49 13 60 78 6 38 5 42 -13 42 -16 0 -21 -9 -26 -45 -4 -25 -11 -45 -17 -45
-11 0 -11 5 1 93 15 101 19 117 30 117 6 0 8 -16 4 -40 -6 -36 -5 -40 15 -40
15 0 21 6 21 23 0 12 3 31 6 43 6 22 -18 54 -41 54 -7 0 -22 -8 -34 -17z"/>
<path d="M1122 713 c-27 -23 -60 -227 -41 -249 15 -18 63 -18 79 0 6 8 18 65
27 127 15 107 14 113 -3 126 -24 17 -38 16 -62 -4z m38 -35 c-1 -32 -27 -189
-33 -195 -15 -14 -15 7 -2 97 8 52 15 98 15 103 0 4 5 7 10 7 6 0 10 -6 10
-12z"/>
<path d="M257 707 c-10 -26 -30 -225 -24 -240 10 -26 63 -22 81 6 7 12 20 73
28 135 14 106 14 112 -3 112 -21 0 -24 -10 -39 -125 -13 -104 -17 -118 -28
-111 -5 3 -1 57 8 121 16 108 16 115 -1 115 -9 0 -19 -6 -22 -13z"/>
<path d="M376 693 c-3 -16 -10 -64 -16 -108 -6 -44 -12 -92 -15 -107 -4 -26
-2 -28 29 -28 21 0 36 6 40 15 3 9 0 15 -9 15 -21 0 -19 33 10 208 5 27 3 32
-14 32 -13 0 -21 -9 -25 -27z"/>
<path d="M440 705 c0 -8 7 -15 15 -15 10 0 13 -8 10 -27 -3 -16 -11 -70 -19
-121 -13 -92 -13 -93 8 -90 18 3 22 15 36 118 12 94 18 115 33 118 9 2 17 10
17 18 0 10 -13 14 -50 14 -38 0 -50 -4 -50 -15z"/>
<path d="M557 707 c-10 -26 -30 -225 -24 -240 10 -26 63 -22 81 6 7 12 19 65
25 117 7 52 15 103 17 113 4 12 0 17 -15 17 -22 0 -24 -7 -41 -135 -13 -94
-17 -108 -28 -101 -5 3 -1 57 8 121 16 108 16 115 -1 115 -9 0 -19 -6 -22 -13z"/>
<path d="M676 688 c-3 -18 -10 -69 -16 -113 -6 -44 -13 -90 -16 -102 -3 -18 0
-23 15 -23 15 0 22 9 26 38 13 80 17 92 26 86 6 -3 7 -30 3 -65 -6 -50 -4 -59
9 -59 23 0 28 13 31 87 2 38 6 75 10 84 4 9 6 34 4 55 -3 38 -4 39 -45 42 -40
3 -42 2 -47 -30z m54 -32 c0 -19 -4 -38 -10 -41 -6 -4 -10 10 -10 34 0 23 5
41 10 41 6 0 10 -15 10 -34z"/>
<path d="M791 608 c-12 -62 -25 -123 -28 -135 -4 -18 -1 -23 15 -23 16 0 22 9
27 40 4 25 12 40 21 40 10 0 14 -12 14 -40 0 -32 4 -40 19 -40 16 0 19 12 25
113 4 61 10 122 13 135 5 20 2 22 -40 22 l-44 0 -22 -112z m65 45 c-3 -21 -6
-48 -6 -60 0 -14 -6 -23 -16 -23 -10 0 -14 6 -11 14 3 7 9 34 12 60 4 25 12
46 17 46 7 0 8 -15 4 -37z"/>
<path d="M1225 698 c-2 -13 -9 -61 -15 -108 -6 -47 -13 -97 -16 -112 -5 -23
-2 -28 14 -28 16 0 21 10 27 58 8 62 10 61 20 -10 5 -37 10 -48 24 -48 15 0
20 18 34 118 21 142 21 152 3 152 -17 0 -26 -22 -26 -60 0 -16 -4 -32 -10 -35
-6 -4 -10 13 -10 44 0 44 -3 51 -20 51 -12 0 -21 -8 -25 -22z"/>
<path d="M1350 705 c0 -8 6 -15 14 -15 11 0 13 -9 10 -32 -31 -204 -31 -209
-10 -206 18 3 22 16 36 118 12 94 18 115 33 118 9 2 17 10 17 18 0 10 -13 14
-50 14 -38 0 -50 -4 -50 -15z"/>
<path d="M1470 716 c0 -2 -11 -58 -25 -126 -30 -147 -30 -140 -6 -140 14 0 20
10 25 40 4 26 11 40 21 40 11 0 15 -11 15 -40 0 -28 4 -40 14 -40 18 0 23 24
32 158 l7 112 -42 0 c-22 0 -41 -2 -41 -4z m46 -42 c-3 -9 -6 -36 -6 -60 0
-33 -4 -44 -16 -44 -12 0 -14 7 -10 30 3 17 9 44 12 60 3 17 10 30 16 30 6 0
7 -7 4 -16z"/>
<path d="M1585 708 c-2 -7 -8 -51 -14 -98 -7 -47 -14 -102 -17 -122 l-6 -38
40 0 c56 0 74 24 77 102 2 35 6 75 10 91 4 15 4 38 1 52 -5 21 -12 25 -47 25
-23 0 -41 -5 -44 -12z m55 -40 c0 -24 -16 -56 -23 -48 -3 3 -2 20 0 38 6 36
23 44 23 10z m-10 -112 c0 -32 -19 -81 -27 -72 -8 7 -5 75 4 89 9 16 23 6 23
-17z"/>
<path d="M1697 603 c-21 -148 -21 -153 1 -153 15 0 20 15 30 98 7 53 15 114
19 135 5 32 3 37 -14 37 -18 0 -22 -13 -36 -117z"/>
<path d="M1757 593 c-10 -71 -17 -131 -17 -135 0 -5 16 -8 35 -8 36 0 45 15
21 34 -12 9 -12 24 0 101 18 121 18 135 -4 135 -16 0 -20 -18 -35 -127z"/>
</g>
</svg>
